<svg width="96" height="43" viewBox="0 0 96 43" fill="none" xmlns="http://www.w3.org/2000/svg">
<g clip-path="url(#clip0_552_1402)">
<path d="M18.9147 3.83984C18.9384 6.27572 17.4849 4.78197 17.5047 6.15016C17.5138 6.77543 18.2853 7.33317 18.7027 8.14085C19.1987 9.10037 19.3427 10.3312 19.1831 11.3043C19.0793 11.9373 18.869 12.5745 18.5872 13.1566C17.8216 14.7384 16.6015 15.6052 14.655 15.4509C12.8054 15.3043 10.9421 15.3197 9.08678 15.2282C8.41802 15.1952 6.4527 14.5364 6.39383 14.9422C6.30665 15.5435 6.64889 15.9663 7.17555 16.1287C8.0998 16.4136 9.05185 16.6926 10.0117 16.7799C11.8592 16.9477 13.7282 16.9089 15.5724 17.0973C16.5485 17.197 17.5514 17.4752 18.4353 17.8836C19.8931 18.5572 20.2737 19.7367 20.1271 21.5674C19.986 23.3304 19.1225 24.539 17.5333 25.3518C17.1783 25.5335 16.8405 25.7503 16.5123 25.9745C15.9561 26.3545 15.9963 26.7983 16.6041 27.0754C16.958 27.2366 17.3226 27.3762 17.678 27.5347C19.3243 28.269 20.4063 30.3634 19.9932 32.01C19.7866 32.8333 18.7318 33.1924 18.0434 32.6803C16.9907 31.8972 15.8526 31.2874 14.4937 31.1547C13.3829 31.0464 12.438 31.3765 11.7186 32.1975C11.5769 32.3592 11.4517 32.6781 11.527 32.8313C11.615 33.0101 11.9201 33.1605 12.1505 33.1918C12.5928 33.2516 13.0493 33.2329 13.4992 33.2215C16.354 33.149 18.1897 34.3974 19.1589 36.9739C20.3 40.0071 17.842 42.3901 15.3096 42.8869C13.5573 43.2307 12.061 42.631 10.6885 41.6616C9.39971 40.7512 8.34386 39.6244 7.3583 38.3347C8.30195 38.376 9.17589 38.3697 10.0382 38.4627C11.2039 38.5885 12.3619 38.7835 13.5202 38.9665C13.7426 39.0016 13.9598 39.1017 14.1641 39.2008C14.7359 39.478 14.742 39.809 14.243 40.204C13.9553 40.3033 13.5788 40.5476 13.8185 40.7979C14.0731 41.0406 14.2652 41.0627 14.5082 41.1284C14.7108 41.1831 14.947 41.1633 15.1613 41.1325C15.785 41.0426 16.3801 40.8634 16.6406 40.2467C16.9037 39.6236 16.5789 39.1104 16.1924 38.6378C15.1625 37.3784 13.6948 37.0548 12.1393 36.9403C9.94309 36.7788 7.74446 36.6464 5.55054 36.4621C5.05486 36.4204 4.55591 36.2591 4.09005 36.0786C2.90167 35.618 2.46663 34.583 2.91872 33.4448C3.65711 33.6449 4.38131 33.9094 5.13087 34.03C6.7689 34.2935 8.28104 33.9683 9.56298 32.9114C10.2013 32.3849 10.5494 31.7258 10.4084 30.8899C10.3313 30.4333 10.0506 30.2924 9.65847 30.5596C9.26517 30.8276 8.89127 31.1265 8.5366 31.4405C7.55357 32.3103 6.40995 32.5495 5.13272 32.2488C3.77217 31.9285 2.54835 31.3808 1.83893 30.145C1.06392 28.7946 1.55784 26.9454 2.99792 25.7035C3.29396 25.4482 3.62864 25.2336 3.86632 25.0585C4.43128 25.468 4.91797 25.8478 5.43481 26.1856C5.75706 26.3963 6.10391 26.3896 6.32378 26.0203C6.54575 25.6474 6.49175 25.3135 6.1344 25.0199C5.80451 24.7489 5.4464 24.486 5.19671 24.1538C4.5282 23.2646 4.68567 22.078 5.52778 21.3357C5.61932 21.2551 5.76428 21.1864 5.88496 21.1856C7.3038 21.1766 8.72347 21.1582 10.1414 21.195C10.6753 21.209 11.2284 21.2952 11.7323 21.4608C12.9662 21.8662 13.6583 22.9589 13.4693 24.0813C13.296 25.1106 12.2847 25.882 11.0122 25.9494C10.7819 25.9616 10.5458 25.9259 10.321 25.962C9.77596 25.9791 9.88052 26.531 9.97677 26.6425C10.864 27.6709 12.2608 27.9281 13.4733 27.3087C16.335 25.8468 16.5547 22.1265 13.8829 20.3995C12.8923 19.7592 11.7884 19.4046 10.6083 19.3476C9.16892 19.2783 7.72263 19.3367 6.28381 19.2618C4.89101 19.1892 3.64502 18.7127 2.70708 17.679C1.98003 16.8778 1.82558 15.9565 2.21124 14.96C2.95231 13.0453 4.88068 12.0543 7.17538 12.4755C8.72506 12.7599 10.2453 13.2009 11.801 13.4408C12.7769 13.5912 13.8072 13.6039 14.7897 13.4913C16.3728 13.3099 17.3157 12.3538 17.6564 10.8735C17.9999 9.38121 17.6015 8.11909 16.3094 7.17066C15.2442 6.38876 13.997 6.04502 12.6887 5.87453C11.2646 5.68892 9.85608 5.75006 8.47647 6.16327C7.69189 6.44671 7.60925 6.93886 7.65535 7.18384C7.68592 7.34669 8.09233 7.54792 8.33538 7.55405C9.48731 7.5831 10.644 7.49626 11.793 7.55539C13.0138 7.61829 14.2424 7.74771 15.2027 8.62409C15.9017 9.26212 16.1858 10.0714 15.9141 10.7262C15.6179 11.4402 14.8471 11.8991 13.8601 11.8463C13.1499 11.8084 12.4399 11.6894 11.7408 11.5548C10.2492 11.2676 8.77025 10.9186 7.27491 10.6528C6.63646 10.5394 5.96962 10.5708 5.29665 10.5355C4.61974 8.85219 4.22056 7.83968 5.97945 6.27522C7.60597 4.82833 9.53249 3.81834 11.8443 3.87301C12.6392 3.89191 13.4236 4.22449 14.2177 4.39212C14.8853 4.53304 15.5587 4.65054 16.2329 4.75863C16.3559 4.77828 16.9235 4.89351 16.7704 4.6366C16.5281 4.2826 16.3726 3.93323 16.1089 3.69161C14.9115 2.59469 13.4319 2.13537 11.8025 2.05626C11.5836 2.0456 11.3638 2.05206 11.1444 2.0487C11.1237 2.04845 11.1032 2.03543 11.0224 2.00755C11.6139 1.1153 12.346 0.397738 13.4275 0.145869C14.865 -0.188976 16.2366 0.0770022 17.4657 0.846047C18.7048 1.62147 18.8994 2.26135 18.9147 3.83984V3.83984ZM2.61369 19.7792C2.28153 19.5943 2.07342 19.617 1.79988 19.8347C0.364671 20.9764 -0.0568465 22.4986 0.0059738 24.1929C0.0282297 24.7923 0.21795 25.345 0.759902 25.7069C1.22392 25.3296 1.633 24.9357 2.10491 24.6303C2.58547 24.3189 3.12784 24.0946 3.66341 23.8218C3.44035 22.6533 3.7935 21.5878 4.45446 20.6132C3.81693 20.3306 3.18831 20.099 2.6136 19.7792H2.61369ZM24.2034 3.94725C24.2422 2.49466 24.3927 1.83857 24.9534 1.2721C26.7992 -0.592773 30.0567 -0.374498 31.5797 1.71176C31.6433 1.79868 31.6973 1.89216 31.7787 2.01805C29.5231 2.09893 27.4584 2.48803 26.2103 4.49643L26.2691 4.72923C26.7053 4.72923 27.15 4.78155 27.575 4.71462C28.0035 4.64701 28.4259 4.4913 28.8276 4.32157C30.4404 3.63995 32.047 3.70832 33.6295 4.37448C34.8884 4.90442 36.0871 5.54657 37.026 6.5585C37.8689 7.46687 38.1616 8.48988 37.6986 9.67138C37.5827 9.96717 37.499 10.2751 37.3996 10.5801C34.829 10.3974 32.4865 11.4298 30.0239 11.7499C29.4707 11.8218 28.891 11.8587 28.3434 11.7798C27.1289 11.6049 26.5428 10.3946 27.1287 9.34174C27.7218 8.27598 28.7265 7.77736 29.9026 7.69144C31.3617 7.58487 32.8301 7.59251 34.2947 7.56614C34.6457 7.55976 35.0086 7.60108 35.105 7.16688C35.199 6.74318 35.0222 6.4153 34.595 6.28076C31.9268 5.43991 29.3275 5.56169 26.8936 6.9832C25.4039 7.85311 24.8855 9.29949 25.3047 10.9604C25.7059 12.5499 26.7678 13.4062 28.5463 13.5734C30.4324 13.7507 32.2207 13.2563 34.0117 12.8007C35.188 12.5016 36.3607 12.2434 37.5837 12.5032C39.4409 12.8979 40.8652 14.7801 40.5436 16.4395C40.3575 17.3991 39.714 18.0385 38.8938 18.5183C37.899 19.1004 36.8099 19.3098 35.65 19.2894C33.9928 19.2604 32.3248 19.1469 30.6997 19.6108C29.6807 19.9017 28.7789 20.3996 28.0562 21.1574C26.534 22.7533 26.9199 25.4866 28.8563 26.974C30.1189 27.9439 31.5751 27.8696 32.6958 26.7485C32.8329 26.6113 32.8927 26.3434 32.8756 26.1453C32.8691 26.0689 32.5529 25.9874 32.37 25.9623C31.9914 25.9103 31.598 25.9371 31.228 25.8559C30.1383 25.6168 29.4729 24.8867 29.3521 23.8583C29.2503 22.9903 29.8554 22.029 30.7917 21.5724C31.6992 21.1298 32.6751 21.1813 33.6473 21.1887C34.6519 21.1962 35.6568 21.1764 36.6611 21.1946C36.8511 21.1981 37.0869 21.2749 37.2198 21.4004C38.1341 22.2637 38.098 23.6537 37.1509 24.5601C36.9666 24.7365 36.7461 24.8768 36.5451 25.037C36.1983 25.313 36.1707 25.6602 36.3731 26.0138C36.5805 26.3765 36.9202 26.4027 37.2426 26.1863C37.7482 25.8469 38.2273 25.4698 38.7575 25.0793C40.0178 25.6054 41.1475 27.3461 41.1137 28.8116C41.0807 30.2491 40.0929 31.3895 38.3248 32.03C36.7031 32.6175 35.2252 32.4922 33.9579 31.2229C33.7001 30.9647 33.3944 30.7452 33.0862 30.5437C32.742 30.3187 32.4872 30.4038 32.3956 30.824C32.1872 31.7803 32.6317 32.4894 33.3591 33.0342C35.1539 34.3785 37.1112 34.3624 39.1349 33.6065C39.3128 33.5401 39.4856 33.4609 39.6588 33.3884C40.1681 34.2988 39.8183 35.5749 38.8001 35.94C37.7669 36.3104 36.6529 36.5349 35.5551 36.6508C33.5925 36.8583 31.6122 36.9015 29.646 37.0817C28.5618 37.181 27.6018 37.6366 26.8723 38.4616C26.3964 39 25.9655 39.5779 26.32 40.3384C26.5888 40.915 27.5154 41.2689 28.3687 41.1264C28.6074 41.0865 28.8222 40.9102 29.0479 40.7965C28.9088 40.5958 28.8072 40.3505 28.6232 40.2032C28.1252 39.8043 28.1171 39.3878 28.7335 39.1996C29.6745 38.9123 30.6483 38.6845 31.6253 38.5627C32.8386 38.4112 34.0695 38.3935 35.4633 38.3075C34.7515 39.0977 34.1694 39.8097 33.517 40.4538C32.3282 41.6276 31.0081 42.6059 29.2818 42.9255C26.2586 43.4852 23.1841 40.7987 23.5677 37.9189C23.945 35.0857 26.2827 33.1352 29.1982 33.2135C29.6836 33.2266 30.1749 33.2507 30.6536 33.1922C30.8864 33.1638 31.1846 33.0028 31.2873 32.8155C31.3635 32.6763 31.2312 32.3483 31.0908 32.1895C30.1575 31.1334 28.9314 30.8682 27.6473 31.3063C26.6739 31.6385 25.7642 32.1836 24.8806 32.7193C24.235 33.1107 23.2335 32.8318 23.021 32.0986C22.5721 30.5506 23.5382 28.4257 25.0609 27.6424C25.4597 27.4373 25.8831 27.2784 26.2914 27.0905C26.8961 26.8123 26.9446 26.3414 26.3919 25.9651C25.9571 25.6689 25.5164 25.3723 25.0473 25.1337C22.6689 23.9234 22.595 21.0592 23.0868 19.3638C23.3402 18.4903 24.0919 18.0254 24.8878 17.6734C26.4413 16.9866 28.1153 17.0219 29.7719 16.9199C31.4123 16.8191 33.0506 16.6586 34.6813 16.4577C35.1042 16.4056 35.5253 16.1471 35.8885 15.9009C36.0934 15.7619 36.2622 15.4644 36.2918 15.2204C36.3176 15.0071 36.1847 14.6742 36.0114 14.5716C35.8772 14.4921 35.5734 14.6897 35.3432 14.7583C34.8037 14.9191 34.2703 15.1797 33.7217 15.2159C31.9982 15.3299 30.2682 15.3445 28.542 15.4244C25.8853 15.5473 24.3692 14.3839 23.8649 11.6753C23.7042 10.8124 23.7261 9.90158 23.7843 9.02008C23.8357 8.24171 24.2647 7.60956 24.9781 7.19426C25.191 7.07038 25.4129 6.94499 25.5854 6.77618C25.7404 6.62468 26.0992 6.11497 25.4195 5.8128C25.4195 5.8128 24.1647 5.39985 24.2034 3.94725V3.94725ZM42.2746 25.6418C43.7662 24.5505 42.8006 20.4965 40.8054 19.6222L38.5773 20.6138C39.2672 21.5897 39.5589 22.6806 39.3821 23.7073L42.2746 25.6418H42.2746Z" fill="#06B6D4"/>
</g>
<path d="M55.2203 11.5783C54.9124 11.5783 54.6368 11.6391 54.3934 11.7609C54.1572 11.8826 53.9567 12.058 53.792 12.287C53.6274 12.509 53.5021 12.781 53.4162 13.1032C53.3374 13.4253 53.2981 13.7869 53.2981 14.1878C53.2981 14.7319 53.3625 15.1972 53.4914 15.5838C53.6274 15.9632 53.8386 16.2532 54.1249 16.4536C54.4113 16.6541 54.7764 16.7543 55.2203 16.7543C55.5353 16.7543 55.8467 16.7185 56.1545 16.6469C56.4695 16.5753 56.8096 16.4751 57.1747 16.3462V17.7101C56.8382 17.8461 56.5053 17.9463 56.176 18.0107C55.8467 18.0752 55.478 18.1074 55.0699 18.1074C54.2824 18.1074 53.631 17.9463 53.1155 17.6241C52.6072 17.2948 52.2314 16.8366 51.988 16.2496C51.7445 15.6554 51.6228 14.9645 51.6228 14.177C51.6228 13.5972 51.7016 13.0674 51.8591 12.5877C52.0166 12.1009 52.2457 11.6821 52.5464 11.3313C52.8542 10.9805 53.2301 10.7085 53.6739 10.5152C54.1249 10.3219 54.6404 10.2252 55.2203 10.2252C55.5997 10.2252 55.9791 10.2753 56.3586 10.3756C56.7452 10.4686 57.1139 10.5975 57.4647 10.7622L56.9385 12.083C56.6521 11.947 56.3622 11.8289 56.0686 11.7286C55.7823 11.6284 55.4995 11.5783 55.2203 11.5783ZM61.9504 12.0293C62.0291 12.0293 62.1222 12.0329 62.2296 12.0401C62.337 12.0472 62.4229 12.058 62.4873 12.0723L62.3692 13.5757C62.3191 13.5614 62.2439 13.5506 62.1437 13.5435C62.0506 13.5291 61.9683 13.522 61.8967 13.522C61.6891 13.522 61.4886 13.5506 61.2953 13.6079C61.102 13.658 60.9266 13.7403 60.7691 13.8549C60.6188 13.9694 60.4971 14.1234 60.404 14.3166C60.3181 14.5028 60.2752 14.7355 60.2752 15.0147V18H58.6751V12.1367H59.8886L60.1248 13.1247H60.2C60.3145 12.9242 60.4577 12.7416 60.6295 12.577C60.8014 12.4123 60.9982 12.2799 61.2202 12.1797C61.4493 12.0794 61.6927 12.0293 61.9504 12.0293ZM65.758 12.0293C66.3021 12.0293 66.7674 12.1331 67.154 12.3407C67.5478 12.5484 67.852 12.849 68.0668 13.2428C68.2816 13.6365 68.389 14.1198 68.389 14.6925V15.4657H64.609C64.6233 15.9167 64.7557 16.2711 65.0063 16.5288C65.264 16.7865 65.6184 16.9154 66.0694 16.9154C66.4488 16.9154 66.7925 16.8796 67.1003 16.808C67.4082 16.7293 67.7267 16.6111 68.0561 16.4536V17.6886C67.7697 17.8318 67.4654 17.9356 67.1433 18C66.8283 18.0716 66.4453 18.1074 65.9942 18.1074C65.4072 18.1074 64.8882 18 64.4371 17.7852C63.9861 17.5633 63.6317 17.2304 63.374 16.7865C63.1163 16.3427 62.9874 15.7843 62.9874 15.1113C62.9874 14.424 63.102 13.8549 63.3311 13.4039C63.5673 12.9457 63.893 12.602 64.3083 12.373C64.7235 12.1439 65.2067 12.0293 65.758 12.0293ZM65.7687 13.1676C65.4609 13.1676 65.2032 13.2678 64.9955 13.4683C64.7951 13.6687 64.677 13.9802 64.6412 14.4026H66.8855C66.8855 14.1663 66.8426 13.9551 66.7567 13.769C66.6779 13.5828 66.5562 13.4361 66.3916 13.3287C66.2269 13.2213 66.0193 13.1676 65.7687 13.1676ZM72.0919 12.0186C72.8794 12.0186 73.4807 12.1904 73.8959 12.534C74.3183 12.8705 74.5295 13.3895 74.5295 14.0911V18H73.4127L73.1013 17.2053H73.0583C72.8937 17.413 72.7219 17.5848 72.5429 17.7208C72.3711 17.8568 72.1706 17.9535 71.9415 18.0107C71.7196 18.0752 71.444 18.1074 71.1146 18.1074C70.771 18.1074 70.4596 18.043 70.1804 17.9141C69.9083 17.7781 69.6936 17.574 69.5361 17.302C69.3786 17.0228 69.2998 16.672 69.2998 16.2496C69.2998 15.6268 69.5182 15.1686 69.9549 14.8751C70.3916 14.5744 71.0466 14.4097 71.92 14.3811L72.9402 14.3489V14.0911C72.9402 13.7833 72.8579 13.5578 72.6932 13.4146C72.5357 13.2714 72.3138 13.1998 72.0274 13.1998C71.7411 13.1998 71.4619 13.2428 71.1898 13.3287C70.9178 13.4074 70.6457 13.5077 70.3737 13.6294L69.8475 12.5448C70.1625 12.3801 70.5097 12.2512 70.8891 12.1582C71.2757 12.0651 71.6766 12.0186 72.0919 12.0186ZM72.3174 15.3046C71.8019 15.3189 71.444 15.412 71.2435 15.5838C71.043 15.7556 70.9428 15.9811 70.9428 16.2603C70.9428 16.5038 71.0144 16.6791 71.1576 16.7865C71.3008 16.8868 71.4869 16.9369 71.716 16.9369C72.0596 16.9369 72.3496 16.8366 72.5858 16.6362C72.8221 16.4286 72.9402 16.1386 72.9402 15.7664V15.2831L72.3174 15.3046ZM78.6372 16.8295C78.8162 16.8295 78.988 16.8116 79.1527 16.7758C79.3173 16.74 79.482 16.697 79.6467 16.6469V17.8389C79.4748 17.9105 79.2601 17.9714 79.0023 18.0215C78.7518 18.0788 78.4761 18.1074 78.1755 18.1074C77.8247 18.1074 77.5097 18.0501 77.2305 17.9356C76.9584 17.821 76.7401 17.6241 76.5754 17.3449C76.4179 17.0586 76.3392 16.6648 76.3392 16.1637V13.3394H75.5767V12.6629L76.4573 12.126L76.919 10.891H77.9392V12.1367H79.5822V13.3394H77.9392V16.1637C77.9392 16.3856 78.0036 16.5539 78.1325 16.6684C78.2614 16.7758 78.4296 16.8295 78.6372 16.8295ZM82.4236 12.1367V18H80.8235V12.1367H82.4236ZM81.6289 9.83864C81.8652 9.83864 82.0692 9.89591 82.241 10.0105C82.4129 10.1178 82.4988 10.3219 82.4988 10.6226C82.4988 10.9161 82.4129 11.1201 82.241 11.2347C82.0692 11.3492 81.8652 11.4065 81.6289 11.4065C81.3855 11.4065 81.1779 11.3492 81.0061 11.2347C80.8414 11.1201 80.7591 10.9161 80.7591 10.6226C80.7591 10.3219 80.8414 10.1178 81.0061 10.0105C81.1779 9.89591 81.3855 9.83864 81.6289 9.83864ZM85.4915 18L83.2579 12.1367H84.9331L86.0606 15.4764C86.1036 15.6053 86.1394 15.7413 86.168 15.8845C86.2038 16.0277 86.2289 16.1673 86.2432 16.3033C86.2647 16.4393 86.279 16.5646 86.2861 16.6791H86.3291C86.3363 16.5574 86.3506 16.4286 86.3721 16.2926C86.3935 16.1565 86.4186 16.0205 86.4472 15.8845C86.483 15.7413 86.5224 15.6053 86.5654 15.4764L87.6929 12.1367H89.3681L87.1345 18H85.4915ZM92.6256 12.0293C93.1696 12.0293 93.635 12.1331 94.0216 12.3407C94.4153 12.5484 94.7196 12.849 94.9344 13.2428C95.1491 13.6365 95.2565 14.1198 95.2565 14.6925V15.4657H91.4765C91.4908 15.9167 91.6233 16.2711 91.8738 16.5288C92.1316 16.7865 92.486 16.9154 92.937 16.9154C93.3164 16.9154 93.66 16.8796 93.9679 16.808C94.2757 16.7293 94.5943 16.6111 94.9236 16.4536V17.6886C94.6373 17.8318 94.333 17.9356 94.0108 18C93.6958 18.0716 93.3128 18.1074 92.8618 18.1074C92.2748 18.1074 91.7557 18 91.3047 17.7852C90.8537 17.5633 90.4993 17.2304 90.2416 16.7865C89.9838 16.3427 89.855 15.7843 89.855 15.1113C89.855 14.424 89.9695 13.8549 90.1986 13.4039C90.4349 12.9457 90.7606 12.602 91.1758 12.373C91.5911 12.1439 92.0743 12.0293 92.6256 12.0293ZM92.6363 13.1676C92.3285 13.1676 92.0707 13.2678 91.8631 13.4683C91.6627 13.6687 91.5445 13.9802 91.5087 14.4026H93.7531C93.7531 14.1663 93.7102 13.9551 93.6242 13.769C93.5455 13.5828 93.4238 13.4361 93.2591 13.3287C93.0945 13.2213 92.8869 13.1676 92.6363 13.1676Z" fill="black"/>
<path d="M55.2095 32.3184L53.3625 26.3047H53.3195C53.3267 26.4479 53.3374 26.6627 53.3518 26.949C53.3661 27.2354 53.3804 27.5432 53.3947 27.8726C53.409 28.1947 53.4162 28.4882 53.4162 28.7531V32.3184H51.9665V24.651H54.1786L55.9935 30.5143H56.0257L57.9479 24.651H60.1601V32.3184H58.6459V28.6887C58.6459 28.4453 58.6495 28.1661 58.6566 27.8511C58.671 27.5361 58.6817 27.239 58.6889 26.9598C58.7032 26.6734 58.7139 26.4586 58.7211 26.3155H58.6781L56.7022 32.3184H55.2095ZM63.5681 26.4551V32.3184H61.968V26.4551H63.5681ZM62.7734 24.157C63.0097 24.157 63.2137 24.2143 63.3855 24.3288C63.5573 24.4362 63.6432 24.6402 63.6432 24.9409C63.6432 25.2344 63.5573 25.4385 63.3855 25.553C63.2137 25.6676 63.0097 25.7248 62.7734 25.7248C62.53 25.7248 62.3224 25.6676 62.1506 25.553C61.9859 25.4385 61.9036 25.2344 61.9036 24.9409C61.9036 24.6402 61.9859 24.4362 62.1506 24.3288C62.3224 24.2143 62.53 24.157 62.7734 24.157ZM68.5689 26.3477C69.1989 26.3477 69.7036 26.5195 70.0831 26.8631C70.4625 27.1996 70.6522 27.7437 70.6522 28.4954V32.3184H69.0522V28.8927C69.0522 28.4703 68.977 28.1553 68.8266 27.9477C68.6763 27.733 68.4365 27.6256 68.1072 27.6256C67.6203 27.6256 67.2874 27.7938 67.1085 28.1303C66.9295 28.4596 66.84 28.9357 66.84 29.5585V32.3184H65.2399V26.4551H66.4641L66.6789 27.2068H66.7648C66.8937 27.0063 67.0512 26.8452 67.2373 26.7235C67.4235 26.5947 67.6311 26.5016 67.8602 26.4443C68.0893 26.3799 68.3255 26.3477 68.5689 26.3477ZM74.1554 32.4257C73.504 32.4257 72.9706 32.1716 72.5554 31.6633C72.1473 31.1478 71.9433 30.3926 71.9433 29.3975C71.9433 28.3952 72.1509 27.6363 72.5661 27.1209C72.9813 26.6054 73.5254 26.3477 74.1984 26.3477C74.4776 26.3477 74.7246 26.3871 74.9394 26.4658C75.1541 26.5374 75.3367 26.6376 75.487 26.7665C75.6445 26.8953 75.777 27.0421 75.8844 27.2068H75.938C75.9166 27.0922 75.8915 26.9276 75.8629 26.7128C75.8342 26.4909 75.8199 26.2653 75.8199 26.0363V24.157H77.42V32.3184H76.1958L75.8844 31.5559H75.8199C75.7197 31.7134 75.5908 31.8602 75.4333 31.9962C75.283 32.1251 75.104 32.2289 74.8964 32.3076C74.6888 32.3864 74.4418 32.4257 74.1554 32.4257ZM74.7138 31.1478C75.1577 31.1478 75.4691 31.019 75.6481 30.7613C75.8271 30.4964 75.9202 30.1026 75.9273 29.58V29.4082C75.9273 28.8355 75.8378 28.3988 75.6588 28.0981C75.487 27.7974 75.1649 27.6471 74.6924 27.6471C74.3416 27.6471 74.0659 27.801 73.8655 28.1088C73.665 28.4095 73.5648 28.8462 73.5648 29.4189C73.5648 29.9917 73.665 30.4248 73.8655 30.7183C74.0659 31.0047 74.3487 31.1478 74.7138 31.1478ZM83.1846 30.5787C83.1846 30.9725 83.0915 31.3089 82.9054 31.5881C82.7193 31.8602 82.4401 32.0678 82.0678 32.211C81.6955 32.3542 81.2338 32.4257 80.6825 32.4257C80.2744 32.4257 79.9236 32.3971 79.6301 32.3398C79.3366 32.2897 79.0431 32.2038 78.7496 32.0821V30.7613C79.0646 30.9044 79.4046 31.0226 79.7697 31.1156C80.1348 31.2087 80.457 31.2552 80.7362 31.2552C81.0512 31.2552 81.2731 31.2087 81.402 31.1156C81.538 31.0226 81.606 30.9009 81.606 30.7505C81.606 30.6503 81.5774 30.5608 81.5201 30.4821C81.47 30.4033 81.3555 30.3138 81.1765 30.2136C80.9975 30.1134 80.7183 29.9845 80.3389 29.827C79.9738 29.6695 79.6731 29.5156 79.4368 29.3652C79.2006 29.2077 79.0252 29.0216 78.9106 28.8068C78.7961 28.5849 78.7388 28.3093 78.7388 27.98C78.7388 27.4359 78.95 27.0278 79.3724 26.7557C79.7948 26.4837 80.3568 26.3477 81.0584 26.3477C81.4235 26.3477 81.7707 26.3835 82.1 26.4551C82.4293 26.5267 82.7694 26.6448 83.1202 26.8094L82.6369 27.9585C82.4436 27.8726 82.2575 27.7974 82.0785 27.733C81.8996 27.6685 81.7242 27.6184 81.5523 27.5826C81.3877 27.5468 81.2159 27.5289 81.0369 27.5289C80.8006 27.5289 80.6217 27.5611 80.5 27.6256C80.3854 27.69 80.3281 27.7867 80.3281 27.9155C80.3281 28.0086 80.3568 28.0945 80.414 28.1732C80.4785 28.2448 80.5966 28.3236 80.7684 28.4095C80.9474 28.4954 81.2087 28.61 81.5523 28.7531C81.8888 28.8892 82.1788 29.0323 82.4222 29.1827C82.6656 29.3259 82.8517 29.5084 82.9806 29.7303C83.1166 29.9451 83.1846 30.2279 83.1846 30.5787Z" fill="black"/>
<defs>
<clipPath id="clip0_552_1402">
<rect width="43" height="43" fill="white"/>
</clipPath>
</defs>
</svg>
