<svg width="43" height="43" viewBox="0 0 43 43" fill="none" xmlns="http://www.w3.org/2000/svg">
<g clip-path="url(#clip0_552_1395)">
<path d="M18.9147 3.83984C18.9384 6.27572 17.4849 4.78197 17.5047 6.15016C17.5138 6.77543 18.2853 7.33317 18.7027 8.14085C19.1987 9.10037 19.3427 10.3312 19.1831 11.3043C19.0793 11.9373 18.869 12.5745 18.5872 13.1566C17.8216 14.7384 16.6015 15.6052 14.655 15.4509C12.8054 15.3043 10.9421 15.3197 9.08678 15.2282C8.41802 15.1952 6.4527 14.5364 6.39383 14.9422C6.30665 15.5435 6.64889 15.9663 7.17555 16.1287C8.0998 16.4136 9.05185 16.6926 10.0117 16.7799C11.8592 16.9477 13.7282 16.9089 15.5724 17.0973C16.5485 17.197 17.5514 17.4752 18.4353 17.8836C19.8931 18.5572 20.2737 19.7367 20.1271 21.5674C19.986 23.3304 19.1225 24.539 17.5333 25.3518C17.1783 25.5335 16.8405 25.7503 16.5123 25.9745C15.9561 26.3545 15.9963 26.7983 16.6041 27.0754C16.958 27.2366 17.3226 27.3762 17.678 27.5347C19.3243 28.269 20.4063 30.3634 19.9932 32.01C19.7866 32.8333 18.7318 33.1924 18.0434 32.6803C16.9907 31.8972 15.8526 31.2874 14.4937 31.1547C13.3829 31.0464 12.438 31.3765 11.7186 32.1975C11.5769 32.3592 11.4517 32.6781 11.527 32.8313C11.615 33.0101 11.9201 33.1605 12.1505 33.1918C12.5928 33.2516 13.0493 33.2329 13.4992 33.2215C16.354 33.149 18.1897 34.3974 19.1589 36.9739C20.3 40.0071 17.842 42.3901 15.3096 42.8869C13.5573 43.2307 12.061 42.631 10.6885 41.6616C9.39971 40.7512 8.34386 39.6244 7.3583 38.3347C8.30195 38.376 9.17589 38.3697 10.0382 38.4627C11.2039 38.5885 12.3619 38.7835 13.5202 38.9665C13.7426 39.0016 13.9598 39.1017 14.1641 39.2008C14.7359 39.478 14.742 39.809 14.243 40.204C13.9553 40.3033 13.5788 40.5476 13.8185 40.7979C14.0731 41.0406 14.2652 41.0627 14.5082 41.1284C14.7108 41.1831 14.947 41.1633 15.1613 41.1325C15.785 41.0426 16.3801 40.8634 16.6406 40.2467C16.9037 39.6236 16.5789 39.1104 16.1924 38.6378C15.1625 37.3784 13.6948 37.0548 12.1393 36.9403C9.94309 36.7788 7.74446 36.6464 5.55054 36.4621C5.05486 36.4204 4.55591 36.2591 4.09005 36.0786C2.90167 35.618 2.46663 34.583 2.91872 33.4448C3.65711 33.6449 4.38131 33.9094 5.13087 34.03C6.7689 34.2935 8.28104 33.9683 9.56298 32.9114C10.2013 32.3849 10.5494 31.7258 10.4084 30.8899C10.3313 30.4333 10.0506 30.2924 9.65847 30.5596C9.26517 30.8276 8.89127 31.1265 8.5366 31.4405C7.55357 32.3103 6.40995 32.5495 5.13272 32.2488C3.77217 31.9285 2.54835 31.3808 1.83893 30.145C1.06392 28.7946 1.55784 26.9454 2.99792 25.7035C3.29396 25.4482 3.62864 25.2336 3.86632 25.0585C4.43128 25.468 4.91797 25.8478 5.43481 26.1856C5.75706 26.3963 6.10391 26.3896 6.32378 26.0203C6.54575 25.6474 6.49175 25.3135 6.1344 25.0199C5.80451 24.7489 5.4464 24.486 5.19671 24.1538C4.5282 23.2646 4.68567 22.078 5.52778 21.3357C5.61932 21.2551 5.76428 21.1864 5.88496 21.1856C7.3038 21.1766 8.72347 21.1582 10.1414 21.195C10.6753 21.209 11.2284 21.2952 11.7323 21.4608C12.9662 21.8662 13.6583 22.9589 13.4693 24.0813C13.296 25.1106 12.2847 25.882 11.0122 25.9494C10.7819 25.9616 10.5458 25.9259 10.321 25.962C9.77596 25.9791 9.88052 26.531 9.97677 26.6425C10.864 27.6709 12.2608 27.9281 13.4733 27.3087C16.335 25.8468 16.5547 22.1265 13.8829 20.3995C12.8923 19.7592 11.7884 19.4046 10.6083 19.3476C9.16892 19.2783 7.72263 19.3367 6.28381 19.2618C4.89101 19.1892 3.64502 18.7127 2.70708 17.679C1.98003 16.8778 1.82558 15.9565 2.21124 14.96C2.95231 13.0453 4.88068 12.0543 7.17538 12.4755C8.72506 12.7599 10.2453 13.2009 11.801 13.4408C12.7769 13.5912 13.8072 13.6039 14.7897 13.4913C16.3728 13.3099 17.3157 12.3538 17.6564 10.8735C17.9999 9.38121 17.6015 8.11909 16.3094 7.17066C15.2442 6.38876 13.997 6.04502 12.6887 5.87453C11.2646 5.68892 9.85608 5.75006 8.47647 6.16327C7.69189 6.44671 7.60925 6.93886 7.65535 7.18384C7.68592 7.34669 8.09233 7.54792 8.33538 7.55405C9.48731 7.5831 10.644 7.49626 11.793 7.55539C13.0138 7.61829 14.2424 7.74771 15.2027 8.62409C15.9017 9.26212 16.1858 10.0714 15.9141 10.7262C15.6179 11.4402 14.8471 11.8991 13.8601 11.8463C13.1499 11.8084 12.4399 11.6894 11.7408 11.5548C10.2492 11.2676 8.77025 10.9186 7.27491 10.6528C6.63646 10.5394 5.96962 10.5708 5.29665 10.5355C4.61974 8.85219 4.22056 7.83968 5.97945 6.27522C7.60597 4.82833 9.53249 3.81834 11.8443 3.87301C12.6392 3.89191 13.4236 4.22449 14.2177 4.39212C14.8853 4.53304 15.5587 4.65054 16.2329 4.75863C16.3559 4.77828 16.9235 4.89351 16.7704 4.6366C16.5281 4.2826 16.3726 3.93323 16.1089 3.69161C14.9115 2.59469 13.4319 2.13537 11.8025 2.05626C11.5836 2.0456 11.3638 2.05206 11.1444 2.0487C11.1237 2.04845 11.1032 2.03543 11.0224 2.00755C11.6139 1.1153 12.346 0.397738 13.4275 0.145869C14.865 -0.188976 16.2366 0.0770022 17.4657 0.846047C18.7048 1.62147 18.8994 2.26135 18.9147 3.83984V3.83984ZM2.61369 19.7792C2.28153 19.5943 2.07342 19.617 1.79988 19.8347C0.364671 20.9764 -0.0568465 22.4986 0.0059738 24.1929C0.0282297 24.7923 0.21795 25.345 0.759902 25.7069C1.22392 25.3296 1.633 24.9357 2.10491 24.6303C2.58547 24.3189 3.12784 24.0946 3.66341 23.8218C3.44035 22.6533 3.7935 21.5878 4.45446 20.6132C3.81693 20.3306 3.18831 20.099 2.6136 19.7792H2.61369ZM24.2034 3.94725C24.2422 2.49466 24.3927 1.83857 24.9534 1.2721C26.7992 -0.592773 30.0567 -0.374498 31.5797 1.71176C31.6433 1.79868 31.6973 1.89216 31.7787 2.01805C29.5231 2.09893 27.4584 2.48803 26.2103 4.49643L26.2691 4.72923C26.7053 4.72923 27.15 4.78155 27.575 4.71462C28.0035 4.64701 28.4259 4.4913 28.8276 4.32157C30.4404 3.63995 32.047 3.70832 33.6295 4.37448C34.8884 4.90442 36.0871 5.54657 37.026 6.5585C37.8689 7.46687 38.1616 8.48988 37.6986 9.67138C37.5827 9.96717 37.499 10.2751 37.3996 10.5801C34.829 10.3974 32.4865 11.4298 30.0239 11.7499C29.4707 11.8218 28.891 11.8587 28.3434 11.7798C27.1289 11.6049 26.5428 10.3946 27.1287 9.34174C27.7218 8.27598 28.7265 7.77736 29.9026 7.69144C31.3617 7.58487 32.8301 7.59251 34.2947 7.56614C34.6457 7.55976 35.0086 7.60108 35.105 7.16688C35.199 6.74318 35.0222 6.4153 34.595 6.28076C31.9268 5.43991 29.3275 5.56169 26.8936 6.9832C25.4039 7.85311 24.8855 9.29949 25.3047 10.9604C25.7059 12.5499 26.7678 13.4062 28.5463 13.5734C30.4324 13.7507 32.2207 13.2563 34.0117 12.8007C35.188 12.5016 36.3607 12.2434 37.5837 12.5032C39.4409 12.8979 40.8652 14.7801 40.5436 16.4395C40.3575 17.3991 39.714 18.0385 38.8938 18.5183C37.899 19.1004 36.8099 19.3098 35.65 19.2894C33.9928 19.2604 32.3248 19.1469 30.6997 19.6108C29.6807 19.9017 28.7789 20.3996 28.0562 21.1574C26.534 22.7533 26.9199 25.4866 28.8563 26.974C30.1189 27.9439 31.5751 27.8696 32.6958 26.7485C32.8329 26.6113 32.8927 26.3434 32.8756 26.1453C32.8691 26.0689 32.5529 25.9874 32.37 25.9623C31.9914 25.9103 31.598 25.9371 31.228 25.8559C30.1383 25.6168 29.4729 24.8867 29.3521 23.8583C29.2503 22.9903 29.8554 22.029 30.7917 21.5724C31.6992 21.1298 32.6751 21.1813 33.6473 21.1887C34.6519 21.1962 35.6568 21.1764 36.6611 21.1946C36.8511 21.1981 37.0869 21.2749 37.2198 21.4004C38.1341 22.2637 38.098 23.6537 37.1509 24.5601C36.9666 24.7365 36.7461 24.8768 36.5451 25.037C36.1983 25.313 36.1707 25.6602 36.3731 26.0138C36.5805 26.3765 36.9202 26.4027 37.2426 26.1863C37.7482 25.8469 38.2273 25.4698 38.7575 25.0793C40.0178 25.6054 41.1475 27.3461 41.1137 28.8116C41.0807 30.2491 40.0929 31.3895 38.3248 32.03C36.7031 32.6175 35.2252 32.4922 33.9579 31.2229C33.7001 30.9647 33.3944 30.7452 33.0862 30.5437C32.742 30.3187 32.4872 30.4038 32.3956 30.824C32.1872 31.7803 32.6317 32.4894 33.3591 33.0342C35.1539 34.3785 37.1112 34.3624 39.1349 33.6065C39.3128 33.5401 39.4856 33.4609 39.6588 33.3884C40.1681 34.2988 39.8183 35.5749 38.8001 35.94C37.7669 36.3104 36.6529 36.5349 35.5551 36.6508C33.5925 36.8583 31.6122 36.9015 29.646 37.0817C28.5618 37.181 27.6018 37.6366 26.8723 38.4616C26.3964 39 25.9655 39.5779 26.32 40.3384C26.5888 40.915 27.5154 41.2689 28.3687 41.1264C28.6074 41.0865 28.8222 40.9102 29.0479 40.7965C28.9088 40.5958 28.8072 40.3505 28.6232 40.2032C28.1252 39.8043 28.1171 39.3878 28.7335 39.1996C29.6745 38.9123 30.6483 38.6845 31.6253 38.5627C32.8386 38.4112 34.0695 38.3935 35.4633 38.3075C34.7515 39.0977 34.1694 39.8097 33.517 40.4538C32.3282 41.6276 31.0081 42.6059 29.2818 42.9255C26.2586 43.4852 23.1841 40.7987 23.5677 37.9189C23.945 35.0857 26.2827 33.1352 29.1982 33.2135C29.6836 33.2266 30.1749 33.2507 30.6536 33.1922C30.8864 33.1638 31.1846 33.0028 31.2873 32.8155C31.3635 32.6763 31.2312 32.3483 31.0908 32.1895C30.1575 31.1334 28.9314 30.8682 27.6473 31.3063C26.6739 31.6385 25.7642 32.1836 24.8806 32.7193C24.235 33.1107 23.2335 32.8318 23.021 32.0986C22.5721 30.5506 23.5382 28.4257 25.0609 27.6424C25.4597 27.4373 25.8831 27.2784 26.2914 27.0905C26.8961 26.8123 26.9446 26.3414 26.3919 25.9651C25.9571 25.6689 25.5164 25.3723 25.0473 25.1337C22.6689 23.9234 22.595 21.0592 23.0868 19.3638C23.3402 18.4903 24.0919 18.0254 24.8878 17.6734C26.4413 16.9866 28.1153 17.0219 29.7719 16.9199C31.4123 16.8191 33.0506 16.6586 34.6813 16.4577C35.1042 16.4056 35.5253 16.1471 35.8885 15.9009C36.0934 15.7619 36.2622 15.4644 36.2918 15.2204C36.3176 15.0071 36.1847 14.6742 36.0114 14.5716C35.8772 14.4921 35.5734 14.6897 35.3432 14.7583C34.8037 14.9191 34.2703 15.1797 33.7217 15.2159C31.9982 15.3299 30.2682 15.3445 28.542 15.4244C25.8853 15.5473 24.3692 14.3839 23.8649 11.6753C23.7042 10.8124 23.7261 9.90158 23.7843 9.02008C23.8357 8.24171 24.2647 7.60956 24.9781 7.19426C25.191 7.07038 25.4129 6.94499 25.5854 6.77618C25.7404 6.62468 26.0992 6.11497 25.4195 5.8128C25.4195 5.8128 24.1647 5.39985 24.2034 3.94725V3.94725ZM42.2746 25.6418C43.7662 24.5505 42.8006 20.4965 40.8054 19.6222L38.5773 20.6138C39.2672 21.5897 39.5589 22.6806 39.3821 23.7073L42.2746 25.6418H42.2746Z" fill="#06B6D4"/>
</g>
<defs>
<clipPath id="clip0_552_1395">
<rect width="43" height="43" fill="white"/>
</clipPath>
</defs>
</svg>
